# xmcd
#
# Track frame offsets:
#	182
#	23562
#	44857
#	70340
#	93067
#	115360
#	135115
#	169695
#	196520
#	235880
#
# Disc length: 3471
#
# Revision: 1
# Processed by: cddbd v1.5.1PL0 Copyright (c) Steve Scherf et al.
# Submitted via: CDex 1.51
# Normalized: r0:TDELIM( - )
#
DISCID=780d8d0a
DTITLE=Various Artist - Mix September 1995
DYEAR=1995
DGENRE=Jazz
TTITLE0=Joe Luis Walker - Blues of the Month Club
TTITLE1=Joe Luis Walker - You've Got To Lose
TTITLE2=Dee Dee Bridgewater - Song for my Father
TTITLE3=Dee Dee Bridgewater - The Jody Grind
TTITLE4=Courtney Pine - Don't X-plain
TTITLE5=Courtney Pine - The 37th Corridor
TTITLE6=Ornette Coleman - Search For Life
TTITLE7=Ornette Coleman - Walk on the Wild Set
TTITLE8=Luis Armstrong - Let's Do It
TTITLE9=Cannonball Adderley - Jubilation
EXTD=YEAR: 1995
EXTT0=
EXTT1=
EXTT2=
EXTT3=
EXTT4=
EXTT5=
EXTT6=
EXTT7=
EXTT8=
EXTT9=
PLAYORDER=
